@startuml

'skinparam linetype ortho

class Product{
    String id
    String name
    float price
    boolean price_kg
    ProductCategory category
    List<SubProduct> SubProduct
    Store store
    boolean canBePicked
    boolean canBeDelivered
    List<Tag> tags
    float TVA
    DateInterval availability
    int expiration
    String description
    --
    List<SubProduct> getSubProducts()
    boolean addSubProduct(SubProduct)
    boolean removeSubProduct(SubProduct)
    static ProductCategory create(...)
    boolean delete()

    static Product getById()
}
abstract class SubProduct{
    abstract boolean buy()
}
class SubProductWeight extends SubProduct{
    float weight
    --
    boolean buy()
    static SubProductWeight create(...)
    boolean delete()
}
class SubProductUnit extends SubProduct{
    int number
    Map<String, String> informations
    --
    boolean buy()
    static SubProductUnit create(...)
    boolean delete()
}
class Store{
    String name
    Address address
    String id
    Seller boss
    List<ProductCategory> products
    TimeTable timeTable
    String tel
    String mail
    --
    static Store create(...)
    boolean delete()

    List<Product> getProducts()
    List<Product> search(String name)
    List<Order> getOrders()
    List<Order> getOrders(DateInterval)
}
class Cart{
    Map<Integer, ProductCategory> products
    Cart cart
    User user
    --
    boolean addProduct(Product)
    boolean removeProduct(Product)
    float getPrice()
    float getTVA()
    List<Order> buy()
    boolean clear()
}
class Order{
    String id
    Map<Integer, ProductCategory> products
    Store store
    User user
    boolean paid
    Date date
    Address address
    int state
    DateTime rdv
    --
    boolean startPrepare()
    boolean finishedPrepare()
    boolean cancel()
    float getPrice()
    float getTVA()
}
class User{
    String id
    String name, surname
    String tel
    String mail
    String password
    List<Address> addresses
    List<Order> orders
    boolean admin
    --
    static User register(...)
    Token login(String username, String password)
    boolean verifyToken(Token)
    boolean changePassword(String)
    boolean forgetPassword()
    boolean delete()

    List<Order> getOrders(DateInterval)
    List<Order> getOrders()
    Cart getCart()
}
class Seller extends User{
    List<Store> stores
    --
    static Seller register(...)
    Store getStore()
}
class ProductCategory{
    String name
    --
    Product getAll()
}
class Tag{
    String name
}
class DateInterval{
    Date start
    Date stop
    --
    boolean isIn(Time)
}
class TimeInterval{
    Time start
    Time stop
    --
    boolean isIn(Time)
}
class Database{
    '//TODO
}
class Address{
    int number
    String way
    String city
    int postalCode
    String state
}
class TimeTable{
    List<TimeInterval> ints
    --
    Time getOpen(int day, Time)
    Time getClose(int day, Time)
    boolean isOpen(int day, Time)
}
class Token{
    User user
    String value
    Date expiration
    --
    Token create(...)
    boolean isValid()
    void use()
}

Product     --> Store
Product     --> DateInterval
Product     --> Tag
Product     --> SubProduct
Product     --> ProductCategory
Seller      --> Store
Cart        --> Product
Order       --> Product
User        --> Cart
User        --> Order
Token       --> User
Store       --> Address
Store       --> TimeTable
TimeTable   --> TimeInterval
Order       --> Store

@enduml